<?xml version="1.0" standalone="no"?>
<!DOCTYPE svg PUBLIC "-//W3C//DTD SVG 20010904//EN"
 "http://www.w3.org/TR/2001/REC-SVG-20010904/DTD/svg10.dtd">
<svg version="1.0" xmlns="http://www.w3.org/2000/svg"
 width="1024.000000pt" height="1024.000000pt" viewBox="0 0 1024.000000 1024.000000"
 preserveAspectRatio="xMidYMid meet">

<g transform="translate(0.000000,1024.000000) scale(0.100000,-0.100000)"
fill="#000000" stroke="none">
<path d="M4940 8499 c-318 -26 -566 -140 -820 -376 -41 -38 -113 -91 -160
-118 -382 -222 -696 -591 -864 -1015 -61 -156 -112 -337 -139 -503 l-23 -137
-175 -118 c-215 -144 -263 -183 -297 -241 -23 -40 -27 -57 -27 -126 0 -58 5
-89 18 -113 l18 -33 41 36 c63 54 134 76 278 86 69 4 466 8 882 9 700 0 769 2
915 20 184 24 346 50 527 86 71 13 130 23 132 21 6 -5 -91 -64 -206 -125 -122
-65 -251 -115 -395 -152 -219 -56 -274 -60 -1064 -60 l-721 -1 0 -1764 0
-1763 26 -31 c14 -17 42 -35 62 -41 23 -6 220 -10 515 -10 l477 0 0 1530 0
1531 1033 -3 c988 -3 1034 -4 1082 -22 183 -70 265 -213 265 -460 0 -122 -21
-213 -71 -316 -39 -80 -56 -99 -270 -315 l-229 -230 -121 122 -122 121 -6 214
c-7 223 -12 249 -58 290 -49 45 -76 48 -408 48 l-315 0 0 -1255 0 -1255 344 0
c356 0 381 2 424 42 l22 21 0 489 c0 285 4 488 9 488 5 0 38 -32 73 -70 128
-143 235 -156 348 -45 l45 44 120 11 c380 36 776 220 1040 485 231 230 363
506 416 870 20 135 18 483 -5 619 -45 275 -135 496 -277 681 l-50 65 108 0
c128 0 181 19 208 71 26 49 18 285 -12 351 -26 56 -83 101 -162 125 -31 9 -57
17 -58 18 -2 1 -10 53 -18 116 -68 490 -251 900 -555 1239 -132 147 -325 297
-485 378 -33 16 -71 42 -85 57 -14 15 -59 55 -100 89 -246 204 -482 299 -814
326 -142 11 -176 11 -316 -1z m-241 -456 c-333 -245 -560 -735 -634 -1368 -9
-77 -19 -155 -21 -172 l-5 -33 -158 0 -157 0 13 121 c56 521 226 933 497 1205
111 112 215 185 330 233 65 27 163 58 190 60 4 1 -20 -20 -55 -46z m2252
-3611 c91 -89 109 -112 109 -138 0 -26 -73 -102 -607 -636 -407 -405 -617
-609 -635 -613 -16 -4 -40 -4 -54 -1 -25 7 -705 660 -724 697 -25 45 -13 69
87 171 96 97 128 118 156 101 8 -4 119 -109 247 -233 128 -124 238 -229 246
-233 19 -11 41 10 566 532 246 244 453 448 460 452 27 17 43 7 149 -99z"/>
<path d="M9203 2765 c0 -27 2 -38 4 -22 2 15 2 37 0 50 -2 12 -4 0 -4 -28z"/>
<path d="M1032 2745 c0 -16 2 -22 5 -12 2 9 2 23 0 30 -3 6 -5 -1 -5 -18z"/>
<path d="M9192 2620 c0 -14 2 -19 5 -12 2 6 2 18 0 25 -3 6 -5 1 -5 -13z"/>
<path d="M1041 2614 c0 -11 3 -14 6 -6 3 7 2 16 -1 19 -3 4 -6 -2 -5 -13z"/>
<path d="M2598 1053 c7 -3 16 -2 19 1 4 3 -2 6 -13 5 -11 0 -14 -3 -6 -6z"/>
<path d="M7668 1053 c7 -3 16 -2 19 1 4 3 -2 6 -13 5 -11 0 -14 -3 -6 -6z"/>
<path d="M2678 1043 c7 -3 16 -2 19 1 4 3 -2 6 -13 5 -11 0 -14 -3 -6 -6z"/>
<path d="M7578 1043 c6 -2 18 -2 25 0 6 3 1 5 -13 5 -14 0 -19 -2 -12 -5z"/>
<path d="M7463 1033 c9 -2 25 -2 35 0 9 3 1 5 -18 5 -19 0 -27 -2 -17 -5z"/>
</g>
</svg>
